<svg xmlns="http://www.w3.org/2000/svg" version="1.1" xmlns:xlink="http://www.w3.org/1999/xlink" width="319.94" height="147.21"><svg id="SvgjsSvg1007" xmlns="http://www.w3.org/2000/svg" viewBox="0 0 319.94 147.21"><defs><style>.b{fill:#fcb32b;}.c{fill:#ffc907;stroke:#fcb32b;stroke-linecap:round;stroke-linejoin:round;stroke-width:4px;}</style></defs><path class="b" d="M156.16,104.52c.69,1.1,1.03,2.62,1.03,4.55,0,3.59-.88,6.44-2.62,8.56-9.11,11.13-18.82,16.7-29.12,16.7-8.92,0-16.06-3.45-21.39-10.35-5.34-6.9-8-16.79-8-29.67,0-3.13.14-6.26.41-9.38-6.07,1.1-12.7,1.93-19.87,2.48-4.78.37-8.05.6-9.8.69-1.84,9.38-4.42,20.89-7.73,34.5-1.93,8-5.61,12.01-11.04,12.01-5.89,0-8.83-2.67-8.83-8,0-1.19.23-2.85.69-4.97,3.13-12.6,5.61-23.27,7.45-32.02l-6.62.28c-3.04,0-5.24-.53-6.62-1.59-1.38-1.06-2.07-2.78-2.07-5.17,0-3.04.87-5.27,2.62-6.69,1.75-1.43,4.64-2.23,8.69-2.42l7.31-.28c2.39-12.97,3.59-22.86,3.59-29.67,0-4.32-.65-7.27-1.93-8.83-1.29-1.56-2.99-2.35-5.11-2.35-6.44,0-13.71,5.38-21.8,16.15-1.2,1.57-2.53,2.35-4,2.35-1.29,0-2.39-.6-3.31-1.79-.92-1.19-1.38-2.71-1.38-4.55,0-2.85,1.15-5.89,3.45-9.11,4.05-5.61,9.15-10.23,15.32-13.87,6.16-3.63,12.42-5.45,18.77-5.45,5.98,0,10.6,2.05,13.87,6.14,3.26,4.09,4.9,10.47,4.9,19.11,0,7.64-1.1,17.99-3.31,31.05l13.52-.69c5.8-.28,10.76-.74,14.9-1.38,1.66-10.12,4.19-19.6,7.59-28.43,3.4-8.83,7.64-16.01,12.7-21.53,5.06-5.52,10.72-8.28,16.97-8.28,4.6,0,8.23,1.82,10.9,5.45,2.67,3.64,4,8.4,4,14.28,0,22.82-11.64,38.64-34.91,47.47-.28,3.68-.41,7.5-.41,11.45,0,9.66,1.19,16.52,3.59,20.56,2.39,4.05,5.75,6.07,10.07,6.07,3.77,0,7.22-.99,10.35-2.97,3.13-1.98,6.67-5.36,10.63-10.14,1.1-1.29,2.35-1.93,3.73-1.93,1.19,0,2.14.55,2.83,1.66ZM128.28,30.14c-2.26,3.68-4.39,8.69-6.42,15.04-2.02,6.35-3.64,13.3-4.83,20.84,7.36-3.04,12.79-7.36,16.28-12.97,3.5-5.61,5.24-12.83,5.24-21.67,0-2.12-.37-3.77-1.1-4.97-.74-1.19-1.66-1.79-2.76-1.79-2.02,0-4.16,1.84-6.42,5.52Z"></path><path class="b" d="M149.12,128.12c-3.27-4.14-4.9-9.57-4.9-16.28,0-7.36,1.7-14.33,5.11-20.91,3.4-6.58,7.94-11.87,13.59-15.87,5.66-4,11.66-6,18.01-6,2.02,0,3.38.39,4.07,1.17.69.78,1.26,2.19,1.73,4.21,1.75-.37,3.68-.55,5.8-.55s3.91.55,5.11,1.66c1.19,1.1,1.79,2.67,1.79,4.69s-.46,5.8-1.38,11.04c-1.01,5.61-1.79,10.97-2.35,16.08-.55,5.11-.83,10.83-.83,17.18,0,3.5-.71,6-2.14,7.52-1.43,1.52-3.75,2.28-6.97,2.28s-5.45-.76-6.97-2.28-2.28-3.98-2.28-7.38l.14-2.21c-2.85,7.91-7.78,11.87-14.77,11.87-5.24,0-9.5-2.07-12.77-6.21ZM174.3,115.01c2.12-3.59,4-9.98,5.66-19.18l2.62-13.94c-3.77.09-7.27,1.54-10.49,4.35-3.22,2.81-5.8,6.51-7.73,11.11-1.93,4.6-2.9,9.48-2.9,14.63,0,2.76.53,4.85,1.59,6.28,1.06,1.43,2.46,2.14,4.21,2.14,2.57,0,4.92-1.79,7.04-5.38Z"></path><path class="b" d="M205.33,128.81c-1.43-3.68-2.14-9.57-2.14-17.66,0-11.96,1.7-23.32,5.11-34.09.83-2.67,2.18-4.62,4.07-5.86,1.88-1.24,4.53-1.86,7.94-1.86,1.84,0,3.13.23,3.86.69.74.46,1.1,1.33,1.1,2.62,0,1.47-.69,4.78-2.07,9.94-.92,3.68-1.66,6.9-2.21,9.66-.55,2.76-1.01,6.16-1.38,10.21,3.04-7.91,6.44-14.35,10.21-19.32,3.77-4.97,7.47-8.51,11.11-10.63,3.63-2.12,6.97-3.17,10-3.17,5.98,0,8.97,2.99,8.97,8.97,0,3.59-1.01,10.07-3.04,19.46-1.75,8-2.62,13.3-2.62,15.87,0,3.68,1.33,5.52,4,5.52,1.84,0,4.02-1.13,6.56-3.38,2.53-2.25,5.91-5.91,10.14-10.97,1.1-1.29,2.35-1.93,3.73-1.93,1.19,0,2.14.55,2.83,1.66s1.04,2.62,1.04,4.55c0,3.68-.88,6.53-2.62,8.56-3.96,4.88-8.21,8.88-12.77,12.01-4.55,3.13-9.73,4.69-15.52,4.69-4.69,0-8.23-1.36-10.63-4.07-2.39-2.71-3.59-6.65-3.59-11.8,0-2.57.64-7.18,1.93-13.8,1.19-5.8,1.79-9.8,1.79-12.01,0-1.47-.51-2.21-1.52-2.21-1.2,0-2.88,1.54-5.04,4.62-2.16,3.08-4.37,7.15-6.62,12.21-2.26,5.06-4.07,10.4-5.45,16.01-1.01,4.33-2.19,7.25-3.52,8.76-1.33,1.52-3.43,2.28-6.28,2.28-3.5,0-5.96-1.84-7.38-5.52Z"></path><path class="b" d="M271.09,132.53c-1.1-1.19-1.66-3.08-1.66-5.66,0-.73.09-2.02.28-3.86,1.47-16.84,3.91-32.15,7.31-45.95.73-2.85,1.95-4.85,3.66-6,1.7-1.15,4.44-1.73,8.21-1.73s5.93,1.61,5.93,4.83c0,.46-.09,1.33-.28,2.62-4.14,19.69-6.62,36.2-7.45,49.54-.19,2.95-1.06,5.02-2.62,6.21-1.57,1.19-4,1.79-7.31,1.79-2.95,0-4.97-.6-6.07-1.79Z"></path><polygon class="c" points="286.45 38.29 279.09 47.98 283.8 59.2 295.87 60.73 303.23 51.04 298.52 39.82 286.45 38.29"></polygon></svg><style>@media (prefers-color-scheme: light) { :root { filter: none; } }
@media (prefers-color-scheme: dark) { :root { filter: none; } }
</style></svg>